<svg id="Letters" xmlns="http://www.w3.org/2000/svg" width="600" height="600" viewBox="0 0 600 600">
  <defs>
    <style>
      .cls-1 {
        fill: #a20000;
      }

      .cls-1, .cls-2 {
        fill-rule: evenodd;
      }

      .cls-2 {
        fill: #fd0;
      }
    </style>
  </defs>
  <path id="Pennant" class="cls-1" d="M300.5,503.537L132.018,599.99H132V0.01H469V599.99h-0.018ZM469,600H132l0.018-.01H468.982Z"/>
  <g id="Staff">
    <path id="S" class="cls-2" d="M348.758,336.682a64.178,64.178,0,0,0,24.019-25.013,70.486,70.486,0,0,0,8.268-33.7q0-22.325-8.465-35.969t-25.4-21.5q-16.935-7.85-42.919-12.4l-9.056-1.654Q271.97,201.9,259.77,192.392t-12.206-27.287q0-16.124,11.025-26.253t31.5-10.129q21.649,0,33.469,7.441t16.931,18.192a76.261,76.261,0,0,1,6.694,20.672h23.231V109.291h-25.2v35.556h8.269q-6.3-18.606-24.019-29.354t-40.95-10.75q-20.876,0-36.619,7.442a56.022,56.022,0,0,0-24.412,21.5q-8.666,14.059-8.663,34.729,0,29.359,19.294,45.684T289.3,236.216l9.45,1.654q19.685,3.314,31.5,8.062t16.931,13.23q5.112,8.48,5.119,23.773,0,19.022-11.419,29.147t-31.894,10.129q-18.9,0-33.075-7.648a58.9,58.9,0,0,1-22.444-20.879,67.851,67.851,0,0,1-9.843-30.181H220v78.553H245.6V304.847h-5.118a74.207,74.207,0,0,0,40.359,36.176,81.856,81.856,0,0,0,29.334,5.168Q333,346.191,348.758,336.682Z"/>
    <path id="Clips" class="cls-2" d="M345,129h14v20H345V129ZM236,293h14v20H236V293Z"/>
  </g>
  <path id="Accents" class="cls-2" d="M300.5,473.537L132.018,569.99H132V-29.99H469V569.99h-0.018ZM469,570H132l0.018-.01H468.982ZM300.5,453.537L132.018,549.99H132V-49.99H469V549.99h-0.018ZM469,550H132l0.018-.01H468.982ZM300.5,429.537L132.018,525.99H132V-73.99H469V525.99h-0.018ZM469,526H132l0.018-.01H468.982ZM300.5,409.537L132.018,505.99H132V-93.99H469V505.99h-0.018ZM469,506H132l0.018-.01H468.982ZM132,1H469V26H132V1Zm0,33H469V46H132V34Z"/>
</svg>
