<svg xmlns="http://www.w3.org/2000/svg" width="1080" height="1920" viewBox="0 0 1080 1920">
  <defs>
    <style>
      .cls-1 {
        fill: #656565;
        stroke: #000;
        stroke-width: 86px;
      }

      .cls-1, .cls-2 {
        fill-rule: evenodd;
      }
    </style>
  </defs>
  <path class="cls-1" d="M1080,0V1920H0V0H1080Z"/>
  <path id="Mobile_First_Design" data-name="Mobile First Design" class="cls-2" d="M222.192,717.187V702.833H202.421V582.854L260.65,709.333h7.042l57.417-126.479V702.833H305.338v14.354h61.479V702.833H346.234V579.062h20.583V564.708H314.275l-47.4,106.979L217.046,564.708H165.317v14.354H185.9V702.833H165.317v14.354h56.875Zm249.976-3.927a51.849,51.849,0,0,0,20.313-19.906q7.313-12.727,7.312-29.792,0-16.789-7.312-29.385a50.3,50.3,0,0,0-20.313-19.5q-13-6.908-30.333-6.907-17.062,0-30.062,6.907a49.384,49.384,0,0,0-20.178,19.5q-7.179,12.592-7.177,29.656t7.177,29.791A50,50,0,0,0,411.773,713.4q13,7.039,30.062,7.042Q459.165,720.437,472.168,713.26Zm-49.7-13.677a34.809,34.809,0,0,1-12.864-14.354,47.214,47.214,0,0,1-4.6-21.4q0-12.187,4.6-21.261a34.119,34.119,0,0,1,12.864-14.083,36.61,36.61,0,0,1,19.365-5.01,37.874,37.874,0,0,1,19.771,5.01,34.082,34.082,0,0,1,13,13.948q4.6,8.937,4.6,21.125,0,12.461-4.6,21.667a34.567,34.567,0,0,1-13,14.354,37.074,37.074,0,0,1-19.771,5.146A35.843,35.843,0,0,1,422.47,699.583ZM513.876,562v14.084h19.229v126.75H513.334v14.354h39.813V705l-5.688-2.708a46.131,46.131,0,0,0,17.063,13.271,52.133,52.133,0,0,0,21.4,4.333,56.385,56.385,0,0,0,27.354-6.771,52.588,52.588,0,0,0,20.177-19.635q7.719-12.861,7.719-31.01,0-17.6-6.906-29.792a45.879,45.879,0,0,0-18.688-18.417,55.061,55.061,0,0,0-26.135-6.229,62.61,62.61,0,0,0-22.48,4.469,57.524,57.524,0,0,0-20.312,13.135h6.5V562H513.876Zm96.146,72.042q10.29,10.563,10.292,30.063,0,20.046-10.969,30.468T582.4,705a44.452,44.452,0,0,1-18.823-4.468,52.866,52.866,0,0,1-16.656-12.052l6.229,11.1V630.791l-6.771,10.833a55.669,55.669,0,0,1,18.417-13.677,47.156,47.156,0,0,1,19.229-4.468Q599.726,623.479,610.022,634.041Zm103.455,83.146V702.833H694.248V610.749H654.165V625.1h20.312v77.729H653.894v14.354h59.583Zm-21.26-133.656a13.738,13.738,0,0,0,0-19.771,15.627,15.627,0,0,0-20.719,0,13.443,13.443,0,0,0,0,19.771A15.627,15.627,0,0,0,692.217,583.531Zm92.489,133.656V702.833H767.372V562H728.1v14.084h19.229v126.75H727.56v14.354h57.146Zm100.477-2.708a62.443,62.443,0,0,0,18.959-14.355L897.1,687.937a66.571,66.571,0,0,1-17.875,12.187A51.846,51.846,0,0,1,856.746,705a38.44,38.44,0,0,1-20.177-5.281,35.809,35.809,0,0,1-13.677-14.9q-4.875-9.611-4.875-22.885,0-12.454,4.739-21.26a33.861,33.861,0,0,1,12.865-13.542,35.371,35.371,0,0,1,18.146-4.74,34.975,34.975,0,0,1,16.791,3.927A28.531,28.531,0,0,1,882.069,637.7q4.2,7.452,4.2,18.011H815.308l-0.27,12.458h91V663.02q0-16.789-6.23-29.25a44.739,44.739,0,0,0-18.01-19.229q-11.781-6.767-28.031-6.771a58.639,58.639,0,0,0-28.438,6.907,52.625,52.625,0,0,0-20.312,19.5q-7.586,12.592-7.584,29.927,0,16.8,7.99,29.52A54.481,54.481,0,0,0,827.09,713.4a65.57,65.57,0,0,0,30.468,7.042Q873.536,720.437,885.183,714.479ZM348.942,1013.02V998.666H327.817V941.52h46.042v17.6h11.375V909.562H373.859v16.521H327.817V874.9h69.875v31.959h17.063V860.541H284.484V874.9h21.125V998.666H284.484v14.354h64.458Zm137.311,0V998.666H467.024V906.583H426.94v14.354h20.313v77.729H426.67v14.354h59.583ZM464.992,879.364a13.738,13.738,0,0,0,0-19.771,15.626,15.626,0,0,0-20.718,0,13.441,13.441,0,0,0,0,19.771A15.626,15.626,0,0,0,464.992,879.364Zm96.823,133.656V998.666H542.857l0.27-42.792q0-15.977,7.448-24.51t17.74-8.531a30.706,30.706,0,0,1,9.479,1.489A39.411,39.411,0,0,1,587,928.791l4.875-18.146a53.347,53.347,0,0,0-10.833-4.062,44.584,44.584,0,0,0-10.833-1.354,27.387,27.387,0,0,0-12.594,3.114A29.464,29.464,0,0,0,546.784,918.5q-4.741,7.047-7.719,19.23l3.792,0.541V906.583H502.5v14.354h20.584v77.729H502.5v14.354h59.313Zm121.465-.54a33.948,33.948,0,0,0,15.167-10.16q5.82-6.9,5.822-17.466,0-11.642-4.875-18.011a30.922,30.922,0,0,0-13.135-9.75,125.319,125.319,0,0,0-18.552-5.823l-13.813-2.979q-10.834-2.7-15.572-5.958a10.509,10.509,0,0,1-4.74-9.209,11.884,11.884,0,0,1,6.906-11.375,33.828,33.828,0,0,1,15.573-3.52A42.2,42.2,0,0,1,669.2,920.4a41.549,41.549,0,0,1,11.645,5.823q5.009,3.657,6.094,8.531l-4.6-17.875,3.521,25.73h14.083V906.041H683.957v12.188l4.062,1.354a20.338,20.338,0,0,0-8.395-8.667,48.485,48.485,0,0,0-13.136-5.281,57.534,57.534,0,0,0-13.677-1.761q-16.8,0-28.031,7.719t-11.24,22.073q0,14.9,8.667,21.261t23.562,10.156l14.9,3.25q12.727,2.711,18.552,6.094t5.823,12.052q0,7.313-6.906,11.375t-17.2,4.066a46.683,46.683,0,0,1-21.8-5.421q-10.429-5.414-13.406-15.437l3.791,12.729-1.625-17.6H613.811v36.833h15.708V1001.1l-4.062-2.434a27.04,27.04,0,0,0,8.667,8.934,46.609,46.609,0,0,0,13.406,5.96A60.931,60.931,0,0,0,683.28,1012.48Zm104.946,0.54V998.666h-16.25q-7.859,0-11.105-4.062t-3.25-14.084V920.937h28.167V906.583H757.621V862.437l-20.041,7.854v36.292h-17.6v14.354h17.6V981.6q0,15.982,7.854,23.7t23.021,7.72h19.771ZM239.8,1308.85q19.5,0,34.125-5.82a66.429,66.429,0,0,0,24.375-16.25,67.772,67.772,0,0,0,14.625-24.65,94.982,94.982,0,0,0,4.875-31.01,81.146,81.146,0,0,0-4.74-27.21,69.576,69.576,0,0,0-38.864-41.17q-14.625-6.36-34.667-6.37H156.651v14.36h21.125V1294.5H156.651v14.35H239.8Zm-39.813-138.12h38.459q14.625,0,25.323,5.14a49.723,49.723,0,0,1,17.6,13.82,59.526,59.526,0,0,1,10.291,19.5,74.966,74.966,0,0,1,3.386,22.48,89.916,89.916,0,0,1-3.25,24.51,55.374,55.374,0,0,1-10.156,20.04,47.166,47.166,0,0,1-17.875,13.4q-10.97,4.875-26.136,4.88H199.984V1170.73Zm225.6,135.42a62.446,62.446,0,0,0,18.958-14.36L437.5,1279.6a66.481,66.481,0,0,1-17.875,12.19,51.853,51.853,0,0,1-22.48,4.88,38.365,38.365,0,0,1-20.177-5.29,35.806,35.806,0,0,1-13.677-14.89q-4.875-9.615-4.875-22.89,0-12.45,4.74-21.26a33.892,33.892,0,0,1,12.864-13.54,35.342,35.342,0,0,1,18.146-4.74,34.923,34.923,0,0,1,16.792,3.93,28.529,28.529,0,0,1,11.51,11.37q4.2,7.455,4.2,18.01H355.711l-0.271,12.46h91v-5.14q0-16.8-6.229-29.25a44.676,44.676,0,0,0-18.01-19.23q-11.783-6.765-28.032-6.77a58.686,58.686,0,0,0-28.437,6.9,52.713,52.713,0,0,0-20.313,19.5q-7.585,12.6-7.583,29.93,0,16.8,7.989,29.52a54.456,54.456,0,0,0,21.667,19.77,65.487,65.487,0,0,0,30.469,7.04Q413.938,1312.1,425.586,1306.15Zm116.052,2.16a33.927,33.927,0,0,0,15.166-10.15q5.821-6.915,5.823-17.47,0-11.64-4.875-18.01a30.928,30.928,0,0,0-13.135-9.75,125.336,125.336,0,0,0-18.552-5.83l-13.813-2.98q-10.834-2.7-15.573-5.95a10.52,10.52,0,0,1-4.739-9.21,11.886,11.886,0,0,1,6.906-11.38,33.875,33.875,0,0,1,15.573-3.52,42.281,42.281,0,0,1,13.135,2.17,41.524,41.524,0,0,1,11.646,5.82q5.008,3.66,6.094,8.53l-4.6-17.87,3.521,25.73h14.083v-36.57H542.315v12.19l4.062,1.36a20.336,20.336,0,0,0-8.4-8.67,48.4,48.4,0,0,0-13.135-5.28,57.633,57.633,0,0,0-13.677-1.76q-16.8,0-28.031,7.72T471.9,1229.5q0,14.895,8.667,21.26t23.562,10.16l14.9,3.25q12.728,2.7,18.552,6.09t5.823,12.05q0,7.32-6.906,11.38t-17.2,4.06a46.571,46.571,0,0,1-21.8-5.42q-10.43-5.415-13.407-15.43l3.792,12.72-1.625-17.6H472.169v36.83h15.708v-11.91l-4.062-2.44a27.185,27.185,0,0,0,8.666,8.94,46.9,46.9,0,0,0,13.407,5.96A61.053,61.053,0,0,0,541.638,1308.31Zm96.82,0.54V1294.5H619.229v-92.08H579.146v14.35h20.312v77.73H578.875v14.35h59.583ZM617.2,1175.2a13.737,13.737,0,0,0,0-19.77,15.618,15.618,0,0,0-20.719,0,13.442,13.442,0,0,0,0,19.77A15.648,15.648,0,0,0,617.2,1175.2Zm119.708,179.7a41.126,41.126,0,0,0,19.5-15.58q7.173-10.695,7.177-28.03v-94.52h17.875v-14.35H743.27v14.62h5.417q-6.5-7.845-18.417-12.46a63.1,63.1,0,0,0-22.75-4.6,59.485,59.485,0,0,0-27.218,6.23,46.671,46.671,0,0,0-19.5,18.41q-7.181,12.2-7.178,30.07,0,17.325,7.313,29.65a48.972,48.972,0,0,0,19.771,18.83,58.262,58.262,0,0,0,27.354,6.5,61.762,61.762,0,0,0,22.344-4.34,53.1,53.1,0,0,0,19.364-12.73l-6.229,1.09v18.96q0,15.975-9.344,23.56t-25.864,7.58a89.43,89.43,0,0,1-16.927-1.76q-9.078-1.77-18.552-4.47l-4.063,15.71a174.663,174.663,0,0,0,20.313,4.74,117.622,117.622,0,0,0,19.77,1.76A75.746,75.746,0,0,0,736.906,1354.9Zm-6.094-135.83a73.2,73.2,0,0,1,19.229,11.51l-6.771-8.66,0.271,66.89,6.5-10.02a56.7,56.7,0,0,1-37.917,15.98,40.506,40.506,0,0,1-19.093-4.47,33.213,33.213,0,0,1-13.542-13.13q-5.015-8.67-5.01-21.13,0-13.545,4.6-22.75a32.765,32.765,0,0,1,12.594-13.95,35.22,35.22,0,0,1,18.281-4.74A54.6,54.6,0,0,1,730.812,1219.07ZM849.7,1308.85V1294.5H830.475V1223l-7.855,8.67a137.107,137.107,0,0,1,21.4-11.92,49.51,49.51,0,0,1,19.771-4.33q9.477,0,14.9,6.23t5.417,17.33v55.52H866.5v14.35h57.146V1294.5H903.87v-59.31q0-17.34-10.156-26.41t-24.781-9.07a56.119,56.119,0,0,0-23.292,5.14,147.5,147.5,0,0,0-22.75,13l7.584-.81v-14.62H790.12v14.35H810.7v77.73H790.12v14.35H849.7Z"/>
</svg>
