<svg xmlns="http://www.w3.org/2000/svg" width="1920" height="1080" viewBox="0 0 1920 1080">
  <defs>
    <style>
      .cls-1 {
        fill: #656565;
        stroke: #000;
        stroke-width: 86px;
      }

      .cls-2 {
        fill-rule: evenodd;
      }
    </style>
  </defs>
  <rect class="cls-1" width="1920" height="1080"/>
  <path id="Desktop_Screenshot_" data-name="Desktop Screenshot " class="cls-2" d="M452.384,498q27,0,47.25-8.062t33.75-22.5a93.811,93.811,0,0,0,20.25-34.126,131.58,131.58,0,0,0,6.75-42.937,112.418,112.418,0,0,0-6.562-37.687,96.37,96.37,0,0,0-53.813-57q-20.25-8.808-48-8.813H337.259V306.75h29.25V478.125h-29.25V498H452.384ZM397.259,306.75h53.25q20.25,0,35.063,7.125A68.752,68.752,0,0,1,509.947,333a82.459,82.459,0,0,1,14.25,27,103.83,103.83,0,0,1,4.687,31.125,124.359,124.359,0,0,1-4.5,33.937,76.562,76.562,0,0,1-14.062,27.75,65.337,65.337,0,0,1-24.75,18.563q-15.187,6.75-36.188,6.75H397.259V306.75ZM709.63,494.25q16.12-8.244,26.25-19.875L726.13,457.5a92.153,92.153,0,0,1-24.75,16.875,71.784,71.784,0,0,1-31.125,6.75q-15.75,0-27.937-7.313a49.59,49.59,0,0,1-18.938-20.624q-6.75-13.308-6.75-31.688,0-17.244,6.563-29.438a46.892,46.892,0,0,1,17.812-18.75,48.978,48.978,0,0,1,25.125-6.562,48.414,48.414,0,0,1,23.25,5.438,39.476,39.476,0,0,1,15.938,15.75q5.81,10.317,5.812,24.937H612.88l-0.375,17.25h126V423q0-23.247-8.625-40.5a61.943,61.943,0,0,0-24.937-26.625q-16.312-9.369-38.813-9.375-21.751,0-39.375,9.562a72.9,72.9,0,0,0-28.125,27q-10.5,17.439-10.5,41.438,0,23.256,11.063,40.875a75.433,75.433,0,0,0,30,27.375q18.931,9.747,42.187,9.75Q693.5,502.5,709.63,494.25Zm160.687,3a47.022,47.022,0,0,0,21-14.062q8.06-9.564,8.063-24.188,0-16.119-6.75-24.938a42.818,42.818,0,0,0-18.188-13.5,173.4,173.4,0,0,0-25.687-8.062l-19.125-4.125q-15-3.744-21.563-8.25a14.551,14.551,0,0,1-6.562-12.75q0-10.872,9.562-15.75a46.833,46.833,0,0,1,21.563-4.875,58.41,58.41,0,0,1,18.187,3,57.506,57.506,0,0,1,16.125,8.062q6.935,5.064,8.438,11.813l-6.375-24.75L873.88,400.5h19.5V349.875H871.255V366.75l5.625,1.875q-3.375-7.119-11.625-12a67.124,67.124,0,0,0-18.188-7.313,79.641,79.641,0,0,0-18.937-2.437q-23.256,0-38.813,10.687t-15.562,30.563q0,20.628,12,29.437t32.625,14.063l20.625,4.5q17.622,3.753,25.687,8.437t8.063,16.688q0,10.125-9.563,15.75t-23.812,5.625a64.584,64.584,0,0,1-30.188-7.5q-14.44-7.5-18.562-21.375l5.25,17.625L793.63,447h-19.5v51h21.75V481.5l-5.625-3.375a37.56,37.56,0,0,0,12,12.375,64.634,64.634,0,0,0,18.562,8.25A84.422,84.422,0,0,0,870.317,497.25ZM1002.88,498V478.125h-24v-52.5L1051.25,498h43.13V478.125h-29.25l-57.75-57,63.75-50.625h22.5V350.625h-78.38V370.5h27.38l-63.753,48.75V283.125h-54.75v19.5h27v175.5h-27.75V498h79.5Zm199.49,0V478.125h-22.5q-10.875,0-15.37-5.625T1160,453V370.5h39V350.625h-39V289.5l-27.75,10.875v50.25h-24.38V370.5h24.38v84q0,22.131,10.87,32.812T1175,498h27.37Zm141.75-5.438A71.778,71.778,0,0,0,1372.24,465q10.125-17.622,10.13-41.25,0-23.247-10.13-40.688a69.648,69.648,0,0,0-28.12-27q-18-9.561-42-9.562-23.625,0-41.63,9.562a68.366,68.366,0,0,0-27.93,27q-9.945,17.439-9.94,41.063t9.94,41.25a69.209,69.209,0,0,0,27.93,27.375q18,9.747,41.63,9.75Q1326.12,502.5,1344.12,492.562Zm-68.81-18.937a48.21,48.21,0,0,1-17.82-19.875q-6.375-12.744-6.37-29.625t6.37-29.437a47.249,47.249,0,0,1,17.82-19.5q11.43-6.936,26.81-6.938,15.75,0,27.37,6.938a47.128,47.128,0,0,1,18,19.312q6.375,12.375,6.38,29.25,0,17.253-6.38,30a47.8,47.8,0,0,1-18,19.875q-11.625,7.128-27.37,7.125Q1286.745,480.75,1275.31,473.625ZM1481.74,556.5V536.625h-28.87l0.37-57.375-5.62,1.125a34.153,34.153,0,0,0,11.25,10.687,71.747,71.747,0,0,0,17.44,7.688,72.939,72.939,0,0,0,21.18,3,78.4,78.4,0,0,0,37.69-9.375,71.094,71.094,0,0,0,27.94-27.187q10.485-17.808,10.5-42.938,0-24.372-9.56-41.25a63.523,63.523,0,0,0-25.88-25.5,76.226,76.226,0,0,0-36.19-8.625,83.212,83.212,0,0,0-58.5,24.75l8.25-4.125-0.37-16.875h-51.75V370.5h25.87V536.625h-26.62V556.5h82.87Zm-14.62-81.188A70.137,70.137,0,0,1,1444.62,459l8.62,11.625-0.37-94.125-9,15.75a49.421,49.421,0,0,1,15.75-13.875,79.212,79.212,0,0,1,18.75-7.687,65.566,65.566,0,0,1,16.12-2.438q21.75,0,36,14.625t14.25,41.625q0,27.756-15,42.188t-37.12,14.437A60.929,60.929,0,0,1,1467.12,475.312ZM249.885,788.958a59.553,59.553,0,0,0,22.875-22.687,61.5,61.5,0,0,0,7.875-30.563q0-20.25-8.062-32.625t-24.188-19.5q-16.127-7.119-40.875-11.25l-8.625-1.5q-22.129-4.122-33.75-12.75t-11.625-24.75q0-14.625,10.5-23.812t30-9.188q20.621,0,31.875,6.75t16.125,16.5a66.79,66.79,0,0,1,6.375,18.75H270.51V582.708h-24v32.25h7.875q-6-16.875-22.875-26.625t-39-9.75q-19.879,0-34.875,6.75a52.627,52.627,0,0,0-23.25,19.5q-8.252,12.753-8.25,31.5,0,26.631,18.375,41.438t48.75,20.062l9,1.5q18.748,3.006,30,7.313t16.125,12q4.871,7.691,4.875,21.562,0,17.253-10.875,26.438t-30.375,9.187q-18,0-31.5-6.937a55.109,55.109,0,0,1-21.375-18.938,59.57,59.57,0,0,1-9.375-27.375h-22.5v71.25h24.375v-33.75H146.76a68.323,68.323,0,0,0,15.75,19.688A71.478,71.478,0,0,0,185.2,792.9a81.449,81.449,0,0,0,27.937,4.687Q234.881,797.583,249.885,788.958Zm177-.187a81.19,81.19,0,0,0,28.125-23.063l-11.625-16.875a101.053,101.053,0,0,1-22.313,19.313q-12.189,7.691-32.062,7.687-15.75,0-27.938-7.312a51.458,51.458,0,0,1-19.125-20.25q-6.942-12.937-6.937-29.813a56.487,56.487,0,0,1,6.937-28.125,49.483,49.483,0,0,1,19.313-19.312q12.375-6.934,28.5-6.938,17.622,0,29.437,9.188t15.188,25.312h21V645.708h-23.25v30.375h5.25q-3.753-14.247-18-24t-36-9.75q-22.5,0-39.938,9.75a71.054,71.054,0,0,0-27.375,27q-9.939,17.253-9.937,40.125t10.312,40.5a74.1,74.1,0,0,0,28.5,27.75q18.186,10.125,41.438,10.125T426.881,788.771ZM567.5,793.833V773.958h-26.25l0.375-59.25q0-22.122,10.312-33.937T576.5,668.958a42.514,42.514,0,0,1,13.125,2.063,54.568,54.568,0,0,1,12.75,6.187l6.75-25.125a73.882,73.882,0,0,0-15-5.625,61.775,61.775,0,0,0-15-1.875,37.919,37.919,0,0,0-17.438,4.313q-8.437,4.316-15,14.062T536,689.583l5.25,0.75V646.458H485.379v19.875h28.5V773.958h-28.5v19.875H567.5Zm180.37-3.75q16.119-8.244,26.25-19.875l-9.75-16.875a92.184,92.184,0,0,1-24.75,16.875,71.787,71.787,0,0,1-31.125,6.75q-15.75,0-27.938-7.312a49.591,49.591,0,0,1-18.937-20.625q-6.75-13.306-6.75-31.688,0-17.244,6.562-29.437a46.894,46.894,0,0,1,17.813-18.75,48.976,48.976,0,0,1,25.125-6.563,48.428,48.428,0,0,1,23.25,5.438,39.486,39.486,0,0,1,15.937,15.75q5.809,10.319,5.813,24.937h-98.25l-0.375,17.25h126v-7.125q0-23.247-8.625-40.5a61.951,61.951,0,0,0-24.938-26.625q-16.312-9.369-38.812-9.375-21.753,0-39.375,9.563a72.867,72.867,0,0,0-28.125,27q-10.5,17.438-10.5,41.437,0,23.256,11.062,40.875a75.433,75.433,0,0,0,30,27.375q18.932,9.747,42.188,9.75Q731.746,798.333,747.874,790.083Zm172.874,0q16.119-8.244,26.25-19.875l-9.75-16.875a92.184,92.184,0,0,1-24.75,16.875,71.787,71.787,0,0,1-31.125,6.75q-15.75,0-27.937-7.312A49.593,49.593,0,0,1,834.5,749.021q-6.75-13.306-6.75-31.688,0-17.244,6.563-29.437a46.892,46.892,0,0,1,17.812-18.75,48.976,48.976,0,0,1,25.125-6.563,48.428,48.428,0,0,1,23.25,5.438,39.488,39.488,0,0,1,15.938,15.75q5.809,10.319,5.812,24.937H824l-0.375,17.25h126v-7.125q0-23.247-8.625-40.5a61.949,61.949,0,0,0-24.937-26.625q-16.312-9.369-38.813-9.375-21.753,0-39.375,9.563a72.867,72.867,0,0,0-28.125,27q-10.5,17.438-10.5,41.437,0,23.256,11.063,40.875a75.433,75.433,0,0,0,30,27.375q18.932,9.747,42.187,9.75Q904.62,798.333,920.748,790.083Zm132.752,3.75V773.958h-26.63v-99l-10.87,12a190.678,190.678,0,0,1,29.62-16.5,68.69,68.69,0,0,1,27.38-6q13.125,0,20.62,8.625t7.5,24v76.875h-24.37v19.875h79.12V773.958H1128.5V691.833q0-23.994-14.06-36.562t-34.32-12.563a77.555,77.555,0,0,0-32.25,7.125,202.73,202.73,0,0,0-31.5,18l10.5-1.125v-20.25H971v19.875h28.5V773.958H971v19.875h82.5Zm221.81-.75a47.052,47.052,0,0,0,21-14.062q8.055-9.562,8.06-24.188,0-16.119-6.75-24.937a42.782,42.782,0,0,0-18.19-13.5,173.3,173.3,0,0,0-25.68-8.063l-19.13-4.125q-15-3.744-21.56-8.25a14.543,14.543,0,0,1-6.56-12.75q0-10.872,9.56-15.75a46.817,46.817,0,0,1,21.56-4.875,58.438,58.438,0,0,1,18.19,3,57.383,57.383,0,0,1,16.12,8.063q6.945,5.063,8.44,11.812l-6.37-24.75,4.87,35.625h19.5V645.708h-22.12v16.875l5.62,1.875q-3.375-7.119-11.62-12a67.265,67.265,0,0,0-18.19-7.312,79.688,79.688,0,0,0-18.94-2.438q-23.25,0-38.81,10.688t-15.56,30.562q0,20.628,12,29.438t32.62,14.062l20.63,4.5q17.61,3.753,25.68,8.438t8.07,16.687q0,10.125-9.57,15.75t-23.81,5.625a64.615,64.615,0,0,1-30.19-7.5q-14.43-7.5-18.56-21.375l5.25,17.625-2.25-24.375h-19.5v51h21.75v-16.5l-5.62-3.375a37.481,37.481,0,0,0,12,12.375,64.559,64.559,0,0,0,18.56,8.25A84.422,84.422,0,0,0,1275.31,793.083Zm126.93,0.75V773.958h-24v-99l-9.37,13.5a142.189,142.189,0,0,1,28.5-17.062q15.375-6.934,29.62-6.938,13.125,0,20.44,8.625t7.31,24v76.875h-24.37v19.875h79.12V773.958h-27V691.833q0-23.994-14.25-36.562t-34.5-12.563a76.7,76.7,0,0,0-33.37,7.688,194.078,194.078,0,0,0-32.25,19.687l10.12-1.875v-89.25h-54.75v19.5h27v175.5h-27.37v19.875h79.12Zm242.63-5.437a71.78,71.78,0,0,0,28.12-27.563q10.125-17.622,10.13-41.25,0-23.247-10.13-40.687a69.635,69.635,0,0,0-28.12-27q-18-9.562-42-9.563-23.625,0-41.63,9.563a68.44,68.44,0,0,0-27.94,27q-9.93,17.438-9.93,41.062t9.93,41.25a69.3,69.3,0,0,0,27.94,27.375q18,9.747,41.63,9.75Q1626.855,798.333,1644.87,788.4Zm-68.82-18.938a48.256,48.256,0,0,1-17.81-19.875q-6.375-12.744-6.37-29.625t6.37-29.437a47.3,47.3,0,0,1,17.81-19.5q11.445-6.934,26.82-6.938,15.75,0,27.37,6.938a47.134,47.134,0,0,1,18,19.312q6.375,12.375,6.38,29.25,0,17.253-6.38,30a47.8,47.8,0,0,1-18,19.875q-11.625,7.128-27.37,7.125Q1587.48,776.583,1576.05,769.458Zm218.44,24.375V773.958h-22.5q-10.875,0-15.37-5.625t-4.5-19.5v-82.5h39V646.458h-39V585.333l-27.75,10.875v50.25h-24.38v19.875h24.38v84q0,22.131,10.87,32.813t31.88,10.687h27.37Z"/>
</svg>
