<svg id="Letters" xmlns="http://www.w3.org/2000/svg" width="600" height="600" viewBox="0 0 600 600">
  <defs>
    <style>
      .cls-1 {
        fill: #a20000;
      }

      .cls-1, .cls-2 {
        fill-rule: evenodd;
      }

      .cls-2 {
        fill: #fd0;
      }
    </style>
  </defs>
  <path id="Pennant" class="cls-1" d="M300.5,503.537L132.018,599.99H132V0.01H469V599.99h-0.018ZM469,600H132l0.018-.01H468.982Z"/>
  <path id="User" class="cls-2" d="M347.97,336.682a74.978,74.978,0,0,0,32.878-28.321q12.007-18.808,12.01-47.752V131.2h29.925V109.291H336.552V131.2h29.137V261.849q0,18.606-7.678,32.042a49.869,49.869,0,0,1-22.247,20.465q-14.571,7.035-35.437,7.028-19.3,0-33.075-7.028a48.357,48.357,0,0,1-21.066-20.465q-7.29-13.431-7.284-31.628V131.2h29.531V109.291H177.477V131.2h29.531V257.715q0,25.223,9.45,45.271t29.728,31.628q20.275,11.571,53.353,11.577Q327.1,346.191,347.97,336.682Z"/>
  <path id="Accents" class="cls-2" d="M300.5,473.537L132.018,569.99H132V-29.99H469V569.99h-0.018ZM469,570H132l0.018-.01H468.982ZM300.5,453.537L132.018,549.99H132V-49.99H469V549.99h-0.018ZM469,550H132l0.018-.01H468.982ZM300.5,429.537L132.018,525.99H132V-73.99H469V525.99h-0.018ZM469,526H132l0.018-.01H468.982ZM300.5,409.537L132.018,505.99H132V-93.99H469V505.99h-0.018ZM469,506H132l0.018-.01H468.982ZM132,1H469V26H132V1Zm0,33H469V46H132V34Z"/>
</svg>
