<svg id="Letters" xmlns="http://www.w3.org/2000/svg" width="600" height="600" viewBox="0 0 600 600">
  <defs>
    <style>
      .cls-1 {
        fill: #0049b6;
      }

      .cls-1, .cls-2 {
        fill-rule: evenodd;
      }

      .cls-2 {
        fill: #DF8C3A;
      }
    </style>
  </defs>
  <path id="Pennant" class="cls-1" d="M300.5,503.537L132.018,599.99H132V0.01H469V599.99h-0.018ZM469,600H132l0.018-.01H468.982Z"/>
  <path id="Admin" class="cls-2" d="M266.183,342.056V320.144H236.652l22.05-67.8h80.325l22.443,67.8H331.939v21.912h90.169V320.144H395.333L329.183,131.2h25.594V109.291H246.5V131.2H271.3L207.12,320.144H178.77v21.912h87.413Zm31.894-210.439h2.362l32.288,98.811H265Z"/>
  <path id="Accents" class="cls-2" d="M300.5,473.537L132.018,569.99H132V-29.99H469V569.99h-0.018ZM469,570H132l0.018-.01H468.982ZM300.5,453.537L132.018,549.99H132V-49.99H469V549.99h-0.018ZM469,550H132l0.018-.01H468.982ZM300.5,429.537L132.018,525.99H132V-73.99H469V525.99h-0.018ZM469,526H132l0.018-.01H468.982ZM300.5,409.537L132.018,505.99H132V-93.99H469V505.99h-0.018ZM469,506H132l0.018-.01H468.982ZM132,1H469V26H132V1Zm0,33H469V46H132V34Z"/>
</svg>
